<?xml version="1.0" encoding="utf-8"?>
<!-- Generator: Adobe Illustrator 23.0.0, SVG Export Plug-In . SVG Version: 6.00 Build 0)  -->
<svg version="1.1" xmlns="http://www.w3.org/2000/svg" xmlns:xlink="http://www.w3.org/1999/xlink" x="0px" y="0px" width="24px"
	 height="24px" viewBox="0 0 24 24" enable-background="new 0 0 24 24" xml:space="preserve">
<g id="Bounding_Box">
	<rect fill="none" width="24" height="24"/>
</g>
<g id="Flat">
	<g id="ui_x5F_spec_x5F_header_copy_3">
	</g>
	<g>
		<path d="M8,8H6v7c0,1.1,0.9,2,2,2h9v-2H8V8z"/>
		<path d="M20,3h-8c-1.1,0-2,0.9-2,2v6c0,1.1,0.9,2,2,2h8c1.1,0,2-0.9,2-2V5C22,3.9,21.1,3,20,3z M20,11h-8V7h8V11z"/>
		<path d="M4,12H2v7c0,1.1,0.9,2,2,2h9v-2H4V12z"/>
	</g>
</g>
<g id="Master" display="none">
	<g id="ui_x5F_spec_x5F_header_copy_2" display="inline">
	</g>
	<g display="inline">
		<path d="M8,8H6v7c0,1.1,0.9,2,2,2h9v-2H8V8z"/>
		<path d="M20,3h-8c-1.1,0-2,0.9-2,2v6c0,1.1,0.9,2,2,2h8c1.1,0,2-0.9,2-2V5C22,3.9,21.1,3,20,3z M20,11h-8V7h8V11z"/>
		<path d="M4,12H2v7c0,1.1,0.9,2,2,2h9v-2H4V12z"/>
	</g>
</g>
</svg>
